#define marker_width 11
#define marker_height 11
static unsigned char marker_bits[] = {
   0x20, 0x00, 0x20, 0x00, 0x20, 0x00, 0x70, 0x00, 0xa8, 0x00, 0xff, 0x07,
   0xa8, 0x00, 0x70, 0x00, 0x20, 0x00, 0x20, 0x00, 0x20, 0x00 };
